<?xml version="1.0" encoding="UTF-8"?>
<svg width="567px" height="284px" version="1.1" viewBox="0 0 150 75" xmlns="http://www.w3.org/2000/svg">
 <g font-family="sans-serif" font-size="40px">
  <text transform="matrix(.30692 0 0 .32064 -203.48 -15.883)" style="line-height:1.25;shape-inside:url(#rect2233);white-space:pre" xml:space="preserve"/>
  <text transform="matrix(.26988 0 0 .3165 -184.76 -14.28)" style="line-height:1.25;shape-inside:url(#rect2233-99);white-space:pre" xml:space="preserve"/>
  <text transform="matrix(.2474 0 0 .25052 -176.73 8.4891)" style="line-height:1.25;shape-inside:url(#rect2233-99-6);white-space:pre" xml:space="preserve"/>
  <text transform="matrix(.21906 -.11499 .11643 .22181 -238.47 30.68)" style="line-height:1.25;shape-inside:url(#rect2233-99-6-1);white-space:pre" xml:space="preserve"/>
  <text transform="matrix(.2474 0 0 .25052 -206.85 7.9327)" style="line-height:1.25;shape-inside:url(#rect2233-99-6-1-1);white-space:pre" xml:space="preserve"/>
  <text transform="matrix(.23681 0 0 .22655 -188.12 16.39)" style="line-height:1.25;shape-inside:url(#rect2233-0);white-space:pre" xml:space="preserve"/>
 </g>
 <g transform="matrix(3.3164,0,0,3.3164,-66.073,-300.79)" stroke="#502b7c" style="stroke:#c84633">
  <g transform="translate(0,-3.7871)" fill="#502b7c" style="fill:#c84633;stroke:#c84633">
   <path d="m50.936 113.03q-1.8352 0-2.7203-1.19-0.88519-1.2027-0.88519-3.6334 0-2.4054 1.0039-3.6081 1.0039-1.2154 3.0226-1.2154 0.49657 0 1.0147 0.076 0.52896 0.076 1.0255 0.22788v2.0382q-0.60452-0.1266-1.0579-0.17724-0.4426-0.0633-0.77724-0.0633-0.58293 0-0.96076 0.1266t-0.60452 0.4431q-0.2159 0.3165-0.31306 0.84821-0.08636 0.51906-0.08636 1.3166 0 0.81023 0.06477 1.342 0.07556 0.51906 0.24829 0.8229 0.18352 0.30384 0.48578 0.41778t0.77724 0.11394q0.08636 0 0.17272 0 0.09716 0 0.19431-0.0127v-2.7725h1.9971v4.5702q-0.80963 0.16458-1.4465 0.24054-0.6369 0.0886-1.1551 0.0886z" stroke-width="1.6" style="fill:#c84633;stroke:#c84633;white-space:pre"/>
   <path d="m56.815 113.08q-3.3449 0-3.3449-3.7978 0-3.8179 3.3449-3.8179 1.6922 0 2.5235 0.94194 0.83127 0.94195 0.83127 2.8759 0 1.924-0.83127 2.8659-0.83127 0.93192-2.5235 0.93192zm0-1.6534q0.36615 0 0.61355-0.10021 0.2474-0.1002 0.39584-0.3407 0.14844-0.25052 0.20782-0.66136 0.05938-0.42087 0.05938-1.0422 0-0.63131-0.05938-1.0422-0.05938-0.42087-0.20782-0.67139-0.14844-0.25051-0.39584-0.35072t-0.61355-0.10021q-0.35626 0-0.60366 0.11023-0.23751 0.10021-0.38595 0.35072-0.14844 0.25052-0.21771 0.67139-0.05938 0.41085-0.05938 1.0321t0.05938 1.0321q0.05938 0.41084 0.20782 0.66136 0.14844 0.2405 0.38595 0.35072 0.2474 0.10021 0.61355 0.10021z" stroke-width="1.6" style="fill:#c84633;stroke:#c84633;white-space:pre"/>
   <g transform="matrix(.30692 0 0 .32064 5.8393 2.4943)" stroke-width="5.1003" style="fill:#c84633;shape-inside:url(#rect2233-93);stroke:#c84633;white-space:pre" aria-label="B">
    <path d="m94.957 344.15q-4.72 0-9.52-0.6v-29.2q2.76-0.32 5.08-0.44 2.36-0.16 4.44-0.16 6.64 0 9.64 2.04 3.04 2.04 3.04 6.48 0 4.92-4.52 6.16v0.16q2.6 0.56 3.96 2.32t1.36 4.64q0 8.6-13.48 8.6zm0.84-6.04q4.32 0 4.32-3.16 0-1.8-0.96-2.52t-3.4-0.72h-2.72v6.24q0.4 0.08 0.92 0.12t1.84 0.04zm-0.28-12.04q2.16 0 2.96-0.68 0.84-0.72 0.84-2.56 0-1.6-0.84-2.32-0.84-0.76-2.76-0.76-1.24 0-2.68 0.24v6.08z" fill="#502b7c" stroke="#502b7c" stroke-width="5.1003" style="fill:#c84633;stroke:#c84633"/>
   </g>
   <g transform="matrix(.1563 -.082042 .083076 .15826 -12.64 66.426)" stroke-width="9.0076" style="fill:#c84633;shape-inside:url(#rect2233-99-6-1-9);stroke:#c84633;white-space:pre" aria-label="n">
    <path d="m85.117 322.15h6.72l0.4 2.36h0.24q1.36-0.8 2.4-1.32 1.08-0.56 1.96-0.88t1.68-0.44 1.68-0.12q2.44 0 3.92 1.64 1.52 1.6 1.52 4.24v16.12h-8v-13.28q0-1.12-0.44-1.6-0.4-0.48-1.16-0.48-0.6 0-1.4 0.24-0.76 0.24-1.52 0.6v14.52h-8z" fill="#502b7c" stroke="#502b7c" stroke-width="9.0076" style="fill:#c84633;stroke:#c84633"/>
   </g>
   <g transform="matrix(.20845 0 0 .21107 6.3294 39.87)" stroke-width="7.628" style="fill:#c84633;shape-inside:url(#rect2233-99-6-1-1-6);stroke:#c84633;white-space:pre" aria-label="v">
    <path d="m83.317 322.67v-0.52h8.4l2.44 10.88 0.68 4.04h0.4l0.68-4.04 2.52-10.88h8.32v0.52l-7.08 21.08h-9.32z" fill="#502b7c" stroke="#502b7c" stroke-width="7.628" style="fill:#c84633;stroke:#c84633"/>
   </g>
   <g transform="matrix(.23681 0 0 .22655 21.207 34.767)" stroke-width="6.9078" style="fill:#c84633;shape-inside:url(#rect2233-0-0);stroke:#c84633;white-space:pre" aria-label="N">
    <path d="m85.437 314.15h6.6l9.24 12.92 1.76 3.16h0.44v-16.08h7.16v29.6h-6.6l-9.16-12.92-1.88-3.28h-0.44v16.2h-7.12z" fill="#502b7c" stroke="#502b7c" stroke-width="6.9078" style="fill:#c84633;stroke:#c84633"/>
   </g>
   <path d="m39.829 107.02h0.72456c0.15412 0 0.27819 0.10263 0.27819 0.2301v4.8682c0 0.12747-0.12408 0.2301-0.27819 0.2301h-0.72456c-0.15412 0-0.27819-0.10263-0.27819-0.2301v-4.8682c0-0.12747 0.12407-0.2301 0.27819-0.2301z" stroke-linecap="round" stroke-width="1.6" style="fill:#c84633;stroke:#c84633"/>
  </g>
  <g transform="translate(.60043 41.8)" fill="#fff" style="stroke:#c84633">
   <g transform="translate(1.2102 -13.917)" style="stroke:#c84633">
    <path d="m49.026 81.337q-1.8352 0-2.7203-1.19-0.88519-1.2027-0.88519-3.6334 0-2.4054 1.0039-3.6081 1.0039-1.2154 3.0226-1.2154 0.49657 0 1.0147 0.076 0.52896 0.076 1.0255 0.22788v2.0382q-0.60452-0.1266-1.0579-0.17724-0.4426-0.0633-0.77724-0.0633-0.58293 0-0.96076 0.1266t-0.60452 0.4431q-0.2159 0.3165-0.31306 0.84821-0.08636 0.51906-0.08636 1.3166 0 0.81023 0.06477 1.342 0.07556 0.51906 0.24829 0.8229 0.18352 0.30384 0.48578 0.41778t0.77724 0.11394q0.08636 0 0.17272 0 0.09716 0 0.19431-0.0127v-2.7725h1.9971v4.5702q-0.80963 0.16458-1.4465 0.24054-0.6369 0.0886-1.1551 0.0886z" stroke-width=".29226" style="stroke:#c84633;white-space:pre"/>
    <path d="m54.904 81.386q-3.3449 0-3.3449-3.7978 0-3.8179 3.3449-3.8179 1.6922 0 2.5235 0.94194 0.83127 0.94195 0.83127 2.8759 0 1.924-0.83127 2.8659-0.83127 0.93192-2.5235 0.93192zm0-1.6534q0.36615 0 0.61355-0.10021 0.2474-0.1002 0.39584-0.3407 0.14844-0.25052 0.20782-0.66136 0.05938-0.42087 0.05938-1.0422 0-0.63131-0.05938-1.0422-0.05938-0.42087-0.20782-0.67139-0.14844-0.25051-0.39584-0.35072t-0.61355-0.10021q-0.35626 0-0.60366 0.11023-0.23751 0.10021-0.38595 0.35072-0.14844 0.25052-0.21771 0.67139-0.05938 0.41085-0.05938 1.0321t0.05938 1.0321q0.05938 0.41084 0.20782 0.66136 0.14844 0.2405 0.38595 0.35072 0.2474 0.10021 0.61355 0.10021z" stroke-width=".24895" style="stroke:#c84633;white-space:pre"/>
    <g fill="#fff" stroke="#502b7c" style="stroke:#c84633">
     <path d="m33.173 81.224q-1.4487 0-2.9219-0.19238v-9.3627q0.8471-0.1026 1.5592-0.14108 0.72433-0.0513 1.3627-0.0513 2.0379 0 2.9587 0.65411 0.93304 0.65411 0.93304 2.0777 0 1.5775-1.3873 1.9751v0.0513q0.79799 0.17956 1.2154 0.74388 0.41741 0.56433 0.41741 1.4878 0 2.7575-4.1373 2.7575zm0.25781-1.9367q1.3259 0 1.3259-1.0132 0-0.57715-0.29464-0.80801-0.29464-0.23086-1.0435-0.23086h-0.83482v2.0008q0.12277 0.02565 0.28237 0.03848 0.1596 0.01283 0.56473 0.01283zm-0.08594-3.8605q0.66295 0 0.90848-0.21804 0.25781-0.23086 0.25781-0.82084 0-0.51302-0.25781-0.74388-0.25781-0.24369-0.8471-0.24369-0.38058 0-0.82255 0.07695v1.9495z" style="shape-inside:url(#rect2233-93);stroke-width:.3137;stroke:#c84633;white-space:pre"/>
     <path transform="matrix(.1563 -.082042 .083076 .15826 -14.551 34.731)" d="m85.117 322.15h6.72l0.4 2.36h0.24q1.36-0.8 2.4-1.32 1.08-0.56 1.96-0.88t1.68-0.44 1.68-0.12q2.44 0 3.92 1.64 1.52 1.6 1.52 4.24v16.12h-8v-13.28q0-1.12-0.44-1.6-0.4-0.48-1.16-0.48-0.6 0-1.4 0.24-0.76 0.24-1.52 0.6v14.52h-8z" style="shape-inside:url(#rect2233-99-6-1-9);stroke:#c84633;white-space:pre"/>
     <path transform="matrix(.20845 0 0 .21107 4.4189 8.1751)" d="m83.317 322.67v-0.52h8.4l2.44 10.88 0.68 4.04h0.4l0.68-4.04 2.52-10.88h8.32v0.52l-7.08 21.08h-9.32z" style="shape-inside:url(#rect2233-99-6-1-1-6);stroke:#c84633;white-space:pre"/>
     <path transform="matrix(.23681 0 0 .22655 19.296 3.0723)" d="m85.861 314.26h6.6l9.24 12.92 1.76 3.16h0.44v-16.08h7.16v29.6h-6.6l-9.16-12.92-1.88-3.28h-0.44v16.2h-7.12z" style="fill:#fff;shape-inside:url(#rect2233-0-0);stroke:#c84633;white-space:pre"/>
    </g>
    <path d="m37.918 75.325h0.72456c0.15412 0 0.27819 0.10263 0.27819 0.2301v4.8682c0 0.12747-0.12408 0.2301-0.27819 0.2301h-0.72456c-0.15412 0-0.27819-0.10263-0.27819-0.2301v-4.8682c0-0.12747 0.12407-0.2301 0.27819-0.2301z" stroke-dasharray="6.456, 0.269" stroke-linecap="round" stroke-width=".269" style="stroke:#c84633"/>
   </g>
  </g>
 </g>
 <circle cx="67.145" cy="28.686" r="3.6199" fill="#fab600" style="fill:#ffffc7"/>
 <circle cx="50.592" cy="18.241" r="4.5781" fill="#29d2ef" style="fill:#599dc5"/>
 <circle cx="77.88" cy="25.609" r="4.3997" fill="#d64397" style="fill:#cf777a"/>
 <circle cx="86.469" cy="10.948" r="5.643" fill="#96cb3a" style="fill:#91b690"/>
 <ellipse cx="63.946" cy="19.709" rx="2.7381" ry="2.7381" fill="#502b7c" style="fill:#8678d0"/>
</svg>
